<svg xmlns="http://www.w3.org/2000/svg" viewBox="20 134.03178805366463 535.0008087532326 306.93642389267075"> <g transform="rotate(0 163.79176259770082 287.5)"><svg xmlns="http://www.w3.org/2000/svg" id="Layer_2" viewBox="0.008100569248199463 -0.004666715860366821 102.88525390625 116.37674713134766" height="166.93642389267072" width="147.58352519540165" y="204.03178805366463" x="90" preserveAspectRatio="xMinYMin" style="overflow: visible;"><path id="Layer_1-2" class="cls-1" d="M101.95,59.86l-6.75-3.89c-5.88-3.39-9.49-9.66-9.49-16.44,0-6.19,3.01-11.95,8-15.49,.83-.59,1.05-1.72,.55-2.6h0c-.51-.88-1.6-1.25-2.53-.83-5.56,2.55-12.05,2.28-17.41-.82h0c-5.87-3.39-9.49-9.66-9.49-16.44V1.99c0-1.01-.75-1.92-1.76-1.99-.58-.04-1.1,.18-1.47,.55-.35,.34-.56,.82-.56,1.34v1.44c0,6.73-3.56,12.95-9.36,16.37h-.02c-5.89,3.47-13.2,3.51-19.12,.09l-8.8-5.08c-.9-.53-2.06-.21-2.59,.69-.17,.3-.26,.63-.26,.95,0,.66,.34,1.29,.94,1.64l8.81,5.08c5.88,3.39,9.49,9.66,9.49,16.45v1.19c0,6.5-3.67,12.45-9.49,15.36h0c-5.88,3.4-13.12,3.4-18.99,0l-8.8-5.08c-.91-.53-2.06-.21-2.59,.69-.52,.9-.21,2.06,.7,2.59l8.8,5.09c5.88,3.39,9.49,9.66,9.49,16.44h0c0,6.18-2.99,11.92-7.95,15.46-.7,.5-1.03,1.4-.78,2.21,.36,1.17,1.65,1.73,2.71,1.25,5.56-2.56,12.05-2.28,17.41,.82h0c5.88,3.4,9.49,9.66,9.49,16.45v2.38c0,1.03,.77,1.95,1.8,2,1.1,.05,1.99-.81,1.99-1.89v-2.49c0-6.79,3.62-13.05,9.49-16.44h0c5.88-3.4,13.12-3.4,18.99,0l4.98,2.88c.9,.52,2.07,.21,2.59-.7,.17-.3,.26-.62,.26-.94,0-.66-.34-1.3-.95-1.65l-4.99-2.88c-5.87-3.39-9.49-9.66-9.49-16.44h0c0-6.79,3.62-13.07,9.49-16.46h0c5.88-3.4,13.11-3.4,18.99,0l6.61,3.82c.93,.54,2.17,.29,2.72-.63,.58-.96,.23-2.16-.69-2.69Zm-40.92,15.96c0,6.79-3.62,13.06-9.5,16.45h0c-5.87,3.4-13.11,3.4-18.99,0h0c-5.88-3.4-9.5-9.67-9.5-16.46h0c0-6.79,3.62-13.06,9.5-16.45h0c5.88-3.4,13.12-3.4,18.99,0h0c5.88,3.4,9.5,9.67,9.5,16.45h0Zm20.88-36.29c0,6.78-3.62,13.05-9.49,16.44h0c-5.87,3.4-13.11,3.4-18.99,0h0c-5.87-3.39-9.49-9.66-9.49-16.44s3.62-13.06,9.49-16.45h0c5.88-3.4,13.12-3.4,18.99,0,2.94,1.7,5.32,4.11,6.95,6.95,1.64,2.84,2.54,6.1,2.54,9.49h0Z" style="fill: #00ffdd; fill-opacity: 1;"></path></svg></g> <g transform="rotate(0 377.98580936358417 319.4108569872475)"><svg y="310.1108567965126" viewBox="2.7300000190734863 6.75 214.02999877929688 18.600000381469727" x="270.97080997393573" height="18.600000381469727" width="214.02999877929688" style="overflow: visible;"><g fill="#00ffdd" fill-opacity="1" style=""><path d="M15.92 25.14L2.73 25.14L2.73 6.96L15.56 6.96L15.56 9.22L5.32 9.22L5.32 22.88L15.92 22.88L15.92 25.14ZM14.44 17.01L5.09 17.01L5.09 14.80L14.44 14.80L14.44 17.01ZM28.95 25.14L26.36 25.14L26.36 6.96L28.49 6.96L40.51 21.89L39.39 21.89L39.39 6.96L41.99 6.96L41.99 25.14L39.86 25.14L27.84 10.21L28.95 10.21L28.95 25.14ZM59.86 25.14L57.29 25.14L57.29 9.22L51.05 9.22L51.05 6.96L66.09 6.96L66.09 9.22L59.86 9.22L59.86 25.14ZM75.07 25.14L72.40 25.14L80.63 6.96L83.20 6.96L91.46 25.14L88.73 25.14L81.38 8.41L82.42 8.41L75.07 25.14ZM87.59 20.59L75.91 20.59L76.61 18.52L86.84 18.52L87.59 20.59ZM102.99 25.14L100.39 25.14L100.39 6.96L102.52 6.96L114.55 21.89L113.43 21.89L113.43 6.96L116.03 6.96L116.03 25.14L113.90 25.14L101.87 10.21L102.99 10.21L102.99 25.14ZM135.92 25.35L135.92 25.35Q133.81 25.35 132.05 24.66Q130.28 23.97 128.98 22.71Q127.69 21.45 126.96 19.76Q126.23 18.07 126.23 16.05L126.23 16.05Q126.23 14.02 126.96 12.33Q127.69 10.65 129.00 9.39Q130.31 8.13 132.08 7.44Q133.84 6.75 135.97 6.75L135.97 6.75Q138.13 6.75 139.92 7.45Q141.71 8.15 142.96 9.56L142.96 9.56L141.35 11.17Q140.23 10.08 138.92 9.57Q137.61 9.06 136.07 9.06L136.07 9.06Q134.52 9.06 133.18 9.58Q131.84 10.10 130.87 11.04Q129.89 11.97 129.36 13.26Q128.83 14.54 128.83 16.05L128.83 16.05Q128.83 17.53 129.36 18.81Q129.89 20.10 130.87 21.05Q131.84 22.00 133.17 22.51Q134.49 23.03 136.05 23.03L136.05 23.03Q137.50 23.03 138.84 22.58Q140.18 22.13 141.32 21.06L141.32 21.06L142.80 23.03Q141.45 24.18 139.64 24.76Q137.84 25.35 135.92 25.35ZM142.80 15.94L142.80 23.03L140.31 22.70L140.31 15.94L142.80 15.94ZM166.43 25.14L153.99 25.14L153.99 6.96L156.59 6.96L156.59 22.88L166.43 22.88L166.43 25.14ZM188.84 25.14L175.65 25.14L175.65 6.96L188.48 6.96L188.48 9.22L178.25 9.22L178.25 22.88L188.84 22.88L188.84 25.14ZM187.36 17.01L178.01 17.01L178.01 14.80L187.36 14.80L187.36 17.01ZM206.94 25.14L199.28 25.14L199.28 6.96L206.94 6.96Q209.85 6.96 212.07 8.10Q214.29 9.24 215.52 11.30Q216.76 13.35 216.76 16.05L216.76 16.05Q216.76 18.75 215.52 20.80Q214.29 22.85 212.07 23.99Q209.85 25.14 206.94 25.14L206.94 25.14ZM201.88 9.22L201.88 22.88L206.79 22.88Q209.05 22.88 210.69 22.02Q212.34 21.16 213.25 19.62Q214.16 18.07 214.16 16.05L214.16 16.05Q214.16 14.00 213.25 12.46Q212.34 10.93 210.69 10.08Q209.05 9.22 206.79 9.22L206.79 9.22L201.88 9.22Z" transform="translate(0, 0)"></path></g></svg></g> <g transform="rotate(0 377.98580936358417 271.3348953585944)"><svg y="246.29489444306708" viewBox="6.260000228881836 27.1299991607666 214.02999877929688 50.08000183105469" x="270.97080997393573" height="50.08000183105469" width="214.02999877929688" style="overflow: visible;"><g fill="#ffffff" fill-opacity="1" style=""><path d="M56.34 77.21L6.26 77.21L6.26 27.13L55.43 27.13L55.43 32.35L12.52 32.35L12.52 49.04L53.64 49.04L53.64 54.26L12.52 54.26L12.52 71.99L56.34 71.99L56.34 77.21ZM96.08 77.21L87.73 77.21L126.33 32.35L77.30 32.35L77.30 27.13L133.64 27.13L133.64 33.39L96.08 77.21ZM196.07 77.21L158.89 77.21L158.89 27.13L196.07 27.13Q203.40 27.13 208.13 28.01Q212.86 28.89 215.52 31.42Q218.17 33.94 219.23 38.77Q220.29 43.59 220.29 51.52L220.29 51.52L220.29 52.82Q220.29 60.48 219.23 65.29Q218.17 70.10 215.52 72.70Q212.86 75.29 208.13 76.25Q203.40 77.21 196.07 77.21L196.07 77.21ZM165.15 32.54L165.15 71.80L196.07 71.80Q201.90 71.80 205.46 71.24Q209.01 70.69 210.87 68.83Q212.73 66.97 213.38 63.16Q214.03 59.34 214.03 52.82L214.03 52.82L214.03 51.52Q214.03 46.11 213.64 42.58Q213.25 39.06 212.19 37.02Q211.13 34.99 209.12 34.02Q207.12 33.06 203.92 32.80Q200.73 32.54 196.07 32.54L196.07 32.54L165.15 32.54Z" transform="translate(0, 0)"></path></g></svg></g></svg>